<svg viewBox="0 0 89.1 89.3" xmlns="http://www.w3.org/2000/svg" xmlns:xlink="http://www.w3.org/1999/xlink" xml:space="preserve" overflow="hidden"><g id="WORTMARKE"></g><g id="CLAIM"></g><g id="SUPERZEICHEN"><path d="M48.7 44.8 59.4 55.5 55.2 59.7 30.5 35C29.3 33.8 29.3 32 30.5 30.8 31.7 29.6 33.5 29.6 34.7 30.8L44.5 40.6 55.2 29.9 59.4 34.1 48.7 44.8ZM40.4 48.9C39.2 47.7 37.4 47.7 36.2 48.9L30.5 54.6C29.3 55.8 29.3 57.6 30.5 58.8 31.7 60 33.5 60 34.7 58.8L40.4 53.1C41.6 51.9 41.6 50 40.4 48.9M48.7 44.8 59.4 55.5 55.2 59.7 30.5 35C29.3 33.8 29.3 32 30.5 30.8 31.7 29.6 33.5 29.6 34.7 30.8L44.5 40.6 55.2 29.9 59.4 34.1 48.7 44.8ZM40.4 48.9C39.2 47.7 37.4 47.7 36.2 48.9L30.5 54.6C29.3 55.8 29.3 57.6 30.5 58.8 31.7 60 33.5 60 34.7 58.8L40.4 53.1C41.6 51.9 41.6 50 40.4 48.9"/></g></svg>