<svg viewBox="0 0 233.01 54.61" xmlns="http://www.w3.org/2000/svg" xmlns:xlink="http://www.w3.org/1999/xlink" overflow="hidden"><defs></defs><g id="WORTMARKE"><path d="M213.42 15.08 224.09 25.75 219.92 29.92 195.27 5.27C194.12 4.12 194.12 2.25 195.27 1.1 196.42-0.05 198.29-0.05 199.44 1.1L209.25 10.91 219.93 0.24 224.1 4.41 213.42 15.09ZM205.13 19.19C203.98 18.04 202.11 18.04 200.96 19.19L195.27 24.88C194.12 26.03 194.12 27.9 195.27 29.05 196.42 30.2 198.29 30.2 199.44 29.05L205.13 23.36C206.28 22.21 206.28 20.34 205.13 19.19M157.56 0.48 128.37 0.48 128.37 6.37 140.02 6.37 140.02 26.97C140.02 28.6 141.34 29.92 142.97 29.92 144.6 29.92 145.92 28.6 145.92 26.97L145.92 6.38 157.57 6.38 157.57 0.48ZM118.53 19.37 114.3 8.56 110.07 19.37 118.53 19.37ZM128.9 29.68 122.57 29.68 120.84 25.26 107.77 25.26 106.04 29.68 99.71 29.68 111.14 0.48 117.47 0.48 128.9 29.69ZM188.3 6.38 188.3 0.49 163.46 0.49 163.46 29.68 188.3 29.68 188.3 23.79 169.35 23.79 169.35 18.04 185.44 18.04 185.44 12.15 169.35 12.15 169.35 6.4 188.3 6.4ZM30.15 15.07C30.15 23.4 23.4 30.14 15.08 30.14 6.76 30.14 0 23.4 0 15.07 0 6.74 6.75 0 15.07 0 23.39 0 30.14 6.75 30.14 15.07ZM24.26 15.07C24.26 10 20.15 5.89 15.08 5.89 10.01 5.89 5.89 10 5.89 15.07 5.89 20.14 10 24.25 15.07 24.25 20.14 24.25 24.25 20.14 24.25 15.07ZM82.24 13.45 82.24 19.34 90.07 19.34C88.55 22.1 85.62 23.98 82.24 23.98 77.31 23.98 73.32 19.99 73.32 15.06 73.32 10.13 77.31 6.14 82.24 6.14 85.54 6.14 88.41 7.93 89.95 10.59L94.71 7.07C92.07 2.97 87.48 0.24 82.24 0.24 74.05 0.24 67.41 6.88 67.41 15.07 67.41 23.26 74.05 29.9 82.24 29.9 90.43 29.9 97.07 23.26 97.07 15.07L97.07 13.46 82.24 13.46ZM62.17 29.68 55.44 29.68 49.72 19.43 42.79 19.43 42.79 29.68 36.9 29.68 36.9 0.48 52.46 0.48C57.69 0.48 61.94 4.73 61.94 9.96 61.94 13.91 59.51 17.3 56.06 18.72L62.18 29.68ZM56.04 9.96C56.04 7.99 54.44 6.38 52.46 6.38L42.78 6.38 42.78 13.53 52.46 13.53C54.43 13.53 56.04 11.93 56.04 9.95ZM230.48 2.24 229.4 2.24 229.4 3.04 230.48 3.04C230.7 3.04 230.88 2.86 230.88 2.64 230.88 2.42 230.7 2.24 230.48 2.24ZM233.01 3.21C233.01 4.85 231.68 6.18 230.04 6.18 228.4 6.18 227.07 4.85 227.07 3.21 227.07 1.57 228.4 0.24 230.04 0.24 231.68 0.24 233.01 1.57 233.01 3.21ZM231.56 4.84 230.88 3.62C231.26 3.46 231.54 3.08 231.54 2.64 231.54 2.06 231.07 1.58 230.48 1.58L228.74 1.58 228.74 4.84 229.4 4.84 229.4 3.7 230.17 3.7 230.81 4.84 231.56 4.84Z" fill="#FFFFFF"/></g><g id="CLAIM"><path d="M209.75 44.56 212.42 54.47 215.13 54.47 216.91 48.08 218.7 54.47 221.41 54.47 224.08 44.56 222.14 44.56 219.98 52.51 217.79 44.72 216.05 44.72 213.86 52.51 211.7 44.56 209.76 44.56ZM199.83 49.53C199.83 47.6 201.14 46.25 202.94 46.25 204.74 46.25 206.05 47.6 206.05 49.53 206.05 51.46 204.76 52.78 202.94 52.78 201.12 52.78 199.83 51.47 199.83 49.53M202.94 54.62C205.9 54.62 208.05 52.53 208.05 49.54 208.05 46.55 205.91 44.42 202.94 44.42 199.97 44.42 197.84 46.54 197.84 49.54 197.84 52.54 199.99 54.62 202.94 54.62M196.67 52.77 191.43 52.77 191.43 44.56 189.49 44.56 189.49 54.47 196.67 54.47 196.67 52.77ZM179.95 54.47 181.89 54.47 181.89 50.3 185.81 50.3 185.81 48.59 181.89 48.59 181.89 46.26 186.89 46.26 186.89 44.55 179.95 44.55 179.95 54.46ZM170.97 54.47 170.97 51.47 172.42 49.9 175.42 54.47 177.77 54.47 173.8 48.59 177.55 44.56 175.07 44.56 170.97 49.06 170.97 44.56 169.03 44.56 169.03 54.47 170.97 54.47ZM160.2 46.27 162.43 46.27C163.5 46.27 164.05 46.92 164.05 47.74 164.05 48.49 163.5 49.16 162.43 49.16L160.2 49.16 160.2 46.27ZM160.2 54.47 160.2 50.87 162.32 50.87 164.31 54.47 166.43 54.47 164.23 50.54C165.36 50.04 166.04 49.01 166.04 47.75 166.04 45.85 164.67 44.57 162.55 44.57L158.25 44.57 158.25 54.47 160.19 54.47ZM147.51 49.54C147.51 47.61 148.82 46.26 150.62 46.26 152.42 46.26 153.73 47.61 153.73 49.54 153.73 51.47 152.44 52.79 150.62 52.79 148.8 52.79 147.51 51.48 147.51 49.54M150.62 54.63C153.58 54.63 155.73 52.54 155.73 49.55 155.73 46.56 153.59 44.43 150.62 44.43 147.65 44.43 145.52 46.55 145.52 49.55 145.52 52.55 147.67 54.63 150.62 54.63M129.79 44.57 132.46 54.48 135.17 54.48 136.95 48.09 138.74 54.48 141.45 54.48 144.12 44.57 142.18 44.57 140.02 52.52 137.83 44.73 136.09 44.73 133.9 52.52 131.74 44.57 129.8 44.57ZM117.7 46.28 119.93 46.28C121 46.28 121.55 46.93 121.55 47.75 121.55 48.5 121 49.17 119.93 49.17L117.7 49.17 117.7 46.28ZM117.7 54.48 117.7 50.88 119.82 50.88 121.81 54.48 123.93 54.48 121.73 50.55C122.86 50.05 123.54 49.02 123.54 47.76 123.54 45.86 122.17 44.58 120.05 44.58L115.75 44.58 115.75 54.48 117.69 54.48ZM108.24 54.63C110.74 54.63 112.41 53.1 112.41 50.72L112.41 44.58 110.48 44.58 110.48 50.68C110.48 52.02 109.53 52.87 108.24 52.87 106.95 52.87 106 52.02 106 50.68L106 44.58 104.07 44.58 104.07 50.72C104.07 53.1 105.74 54.63 108.24 54.63M93.14 49.54C93.14 47.61 94.45 46.26 96.25 46.26 98.05 46.26 99.36 47.61 99.36 49.54 99.36 51.47 98.07 52.79 96.25 52.79 94.43 52.79 93.14 51.48 93.14 49.54M96.25 54.63C99.21 54.63 101.36 52.54 101.36 49.55 101.36 46.56 99.22 44.43 96.25 44.43 93.28 44.43 91.15 46.55 91.15 49.55 91.15 52.55 93.3 54.63 96.25 54.63M80.57 44.57 84.35 50.74 84.35 54.48 86.28 54.48 86.28 50.74 90.04 44.57 87.8 44.57 85.33 48.74 82.88 44.57 80.57 44.57ZM66.31 44.57 70.09 50.74 70.09 54.48 72.02 54.48 72.02 50.74 75.78 44.57 73.54 44.57 71.07 48.74 68.62 44.57 66.31 44.57ZM57.93 54.48 59.87 54.48 59.87 50.31 63.79 50.31 63.79 48.6 59.87 48.6 59.87 46.27 64.87 46.27 64.87 44.56 57.93 44.56 57.93 54.47ZM54.47 44.57 52.53 44.57 52.53 54.48 54.47 54.48 54.47 44.57ZM50.1 52.78 44.86 52.78 44.86 44.57 42.92 44.57 42.92 54.48 50.1 54.48 50.1 52.78ZM34.52 46.28 36.71 46.28C37.78 46.28 38.33 46.94 38.33 47.84 38.33 48.69 37.78 49.37 36.71 49.37L34.52 49.37 34.52 46.28ZM34.52 54.48 34.52 51.08 36.84 51.08C38.96 51.08 40.33 49.72 40.33 47.85 40.33 45.98 38.96 44.58 36.84 44.58L32.58 44.58 32.58 54.48 34.52 54.48ZM18.74 54.48 20.68 54.48 20.68 48.4 23.31 53.81 24.57 53.81 27.2 48.4 27.2 54.48 29.14 54.48 29.14 44.57 27.09 44.57 23.96 51.17 20.82 44.57 18.77 44.57 18.77 54.48ZM15.28 44.57 13.34 44.57 13.34 54.48 15.28 54.48 15.28 44.57ZM2.93 52.28C3.51 53.62 4.96 54.62 6.84 54.62 8.58 54.62 10.51 53.66 10.51 51.72 10.51 49.78 8.99 49.26 7.16 48.6 5.94 48.16 5.23 48.05 5.23 47.25 5.23 46.6 5.9 46.19 6.65 46.19 7.68 46.19 8.39 46.92 8.81 47.64L10.3 46.56C9.68 45.46 8.46 44.41 6.7 44.41 5.05 44.41 3.25 45.39 3.25 47.26 3.25 49.13 4.78 49.76 6.65 50.35 7.81 50.72 8.54 51.07 8.54 51.73 8.54 52.39 7.8 52.83 6.87 52.83 5.7 52.83 4.83 52.17 4.37 51.22L2.94 52.27Z" fill="#1D1D1B"/></g></svg>